Coordinates
version=1
nRows=14
nColumns=40
inDegrees=yes

Units are S.I. units (second, meters, Newtons, ...)
Angles are in degrees.

endheader
time	pelvis_tilt	pelvis_list	pelvis_rotation	pelvis_tx	pelvis_ty	pelvis_tz	hip_flexion_r	hip_adduction_r	hip_rotation_r	knee_angle_r	knee_angle_r_beta	ankle_angle_r	subtalar_angle_r	mtp_angle_r	hip_flexion_l	hip_adduction_l	hip_rotation_l	knee_angle_l	knee_angle_l_beta	ankle_angle_l	subtalar_angle_l	mtp_angle_l	lumbar_extension	lumbar_bending	lumbar_rotation	arm_flex_r	arm_add_r	arm_rot_r	elbow_flex_r	pro_sup_r	wrist_flex_r	wrist_dev_r	arm_flex_l	arm_add_l	arm_rot_l	elbow_flex_l	pro_sup_l	wrist_flex_l	wrist_dev_l
     24.71500000	     -2.38987737	     -0.38326084	      0.00007840	      1.10790037	      0.91958364	      0.41459252	     30.14675052	     -7.04841436	    -14.34159235	     19.49575587	     19.49575587	      2.99681564	     -5.74826893	      9.33992479	     -4.33230751	      0.38187362	    -16.39345761	      9.95477444	      9.95477444	     18.91243540	      0.60800918	     -8.76985785	     -8.96188038	      2.60619721	     -0.25219792	    -21.87191497	    -12.48092743	    -21.48051142	     18.88616178	     47.93392416	      0.00000000	      0.00000000	     29.62901556	    -17.02637484	     -3.84079697	     69.42315731	     47.28381504	      0.00000000	      0.00000000
     24.72650000	     -2.54488132	     -0.33049470	      0.02535560	      1.10896441	      0.91732724	      0.41659450	     30.04850885	     -6.71281150	    -14.56385184	     19.11329653	     19.11329653	      3.05105846	     -5.66768675	      9.38230821	     -4.88406407	      0.29873073	    -16.25723031	      9.97599226	      9.97599226	     19.37905501	      0.55597743	     -8.87165773	     -8.54261679	      2.53101565	     -0.24360077	    -22.64542953	    -12.45982499	    -21.51298394	     18.64398692	     47.93940127	      0.00000000	      0.00000000	     30.02450503	    -17.24987607	     -4.01227222	     69.96373560	     47.30841088	      0.00000000	      0.00000000
     24.73800000	     -2.54019483	     -0.51349855	      0.03187149	      1.11026234	      0.91558460	      0.41878155	     29.49805634	     -6.15796154	    -15.03344666	     18.60161635	     18.60161635	      2.45733286	     -5.42511538	      8.11488780	     -5.55478215	     -0.07613599	    -16.13916524	     10.19286128	     10.19286128	     20.30287325	      0.61924403	     -7.62912094	     -8.55289087	      2.71265937	     -0.10603994	    -23.61422108	    -12.26985169	    -21.79058917	     19.76319305	     47.88577537	      0.00000000	      0.00000000	     28.80639502	    -17.35157258	     -4.82910166	     75.11443407	     47.45928317	      0.00000000	      0.00000000
     24.74950000	     -2.61521530	     -0.67457661	      0.11333931	      1.11155434	      0.91375241	      0.42110536	     29.21025126	     -5.69284600	    -15.11816444	     18.70275939	     18.70275939	      1.49697620	     -5.98991985	      5.65851919	     -5.98191690	     -0.52115520	    -16.13582590	     10.71073408	     10.71073408	     21.28210545	      0.85142139	     -6.40250646	     -8.35128976	      2.86009071	     -0.36908274	    -23.96976671	    -12.30790911	    -21.83233628	     20.07561879	     47.84687036	      0.00000000	      0.00000000	     27.93368849	    -17.56461728	     -5.86548689	     78.12715952	     47.60053955	      0.00000000	      0.00000000
     24.76100000	     -2.63547253	     -0.89772354	      0.19795487	      1.11286573	      0.91219324	      0.42347448	     29.06621112	     -5.30472574	    -15.19842252	     19.49716111	     19.49716111	      1.35467804	     -6.35092660	      5.17524650	     -6.48554361	     -1.00893883	    -15.95434191	     11.11789453	     11.11789453	     21.63056721	      0.59741794	     -6.31665516	     -8.15115377	      3.14067365	     -0.03755509	    -24.31684215	    -12.20579870	    -21.83036947	     19.90175981	     47.84808426	      0.00000000	      0.00000000	     27.95428225	    -17.37665037	     -5.97663492	     79.00360937	     47.62646135	      0.00000000	      0.00000000
     24.77250000	     -2.82269726	     -1.03839750	      0.25562915	      1.11401078	      0.91051278	      0.42607990	     29.18559334	     -4.98539268	    -14.89177535	     20.52327184	     20.52327184	      0.88155061	     -7.28199479	      3.65331552	     -6.51317066	     -1.50889707	    -15.73336486	     12.10551817	     12.10551817	     22.19423290	      0.17877771	     -5.78134041	     -7.87357029	      3.19980166	      0.35358948	    -24.43870982	    -11.93610140	    -21.89526445	     19.88049249	     47.84693624	      0.00000000	      0.00000000	     27.42798183	    -17.06889541	     -6.32681741	     81.62687617	     47.70118302	      0.00000000	      0.00000000
     24.78400000	     -2.77132811	     -1.32612232	      0.38696964	      1.11552470	      0.90965083	      0.42873784	     28.75960144	     -4.51277138	    -14.67757616	     21.13314553	     21.13314553	     -0.43837964	     -8.57333425	     -0.35767425	     -6.80858636	     -2.22393251	    -15.69768398	     13.14968695	     13.14968695	     23.07880663	      0.32679648	     -4.14138611	     -7.86352602	      3.48656438	     -0.66782722	    -23.43735801	    -12.32917456	    -22.11397063	     19.75765986	     47.87123335	      0.00000000	      0.00000000	     25.35982507	    -17.74428664	     -7.99051736	     85.33737778	     47.89286832	      0.00000000	      0.00000000
     24.79550000	     -2.80669001	     -1.55528182	      0.47692154	      1.11675088	      0.90895061	      0.43143581	     28.70375673	     -4.23118791	    -14.54785917	     22.38676442	     22.38676442	     -0.29064335	     -9.14277304	     -1.09964094	     -6.81382930	     -2.88058237	    -15.38450872	     14.44003629	     14.44003629	     23.15090753	     -0.36825226	     -4.15335801	     -7.71050195	      3.72341986	     -0.20611876	    -23.07294599	    -12.17553007	    -22.06851765	     19.53302204	     47.87767969	      0.00000000	      0.00000000	     25.01148116	    -17.28307249	     -8.13896784	     86.18489107	     47.92208252	      0.00000000	      0.00000000
     24.80700000	     -2.80324514	     -1.83358934	      0.56803294	      1.11800387	      0.90874414	      0.43425342	     28.49651126	     -3.87693093	    -14.40714273	     23.46857647	     23.46857647	      0.01408654	     -9.70169514	     -1.76263741	     -6.66659232	     -3.64568345	    -15.02006704	     16.08209806	     16.08209806	     23.03408303	     -1.29179375	     -4.24903004	     -7.63064624	      4.01010109	      0.06715134	    -22.39403439	    -12.13301516	    -22.04911442	     19.39396025	     47.88797730	      0.00000000	      0.00000000	     24.29006371	    -16.96835880	     -8.38016793	     87.27684842	     47.95994791	      0.00000000	      0.00000000
     24.81850000	     -2.78797213	     -2.10547005	      0.62736913	      1.11923557	      0.90906168	      0.43718513	     28.14046585	     -3.47535456	    -14.22898347	     24.27670334	     24.27670334	      0.30356214	    -10.29793063	     -2.60555452	     -6.38299935	     -4.40348149	    -14.48744321	     17.94557009	     17.94557009	     22.48800804	     -2.66090395	     -4.77726577	     -7.61531788	      4.22904253	     -0.63040338	    -20.51233000	    -12.44807152	    -22.03271638	     18.46989544	     47.95252702	      0.00000000	      0.00000000	     22.19617539	    -17.09576319	     -9.89655993	     89.93855992	     48.11892764	      0.00000000	      0.00000000
     24.83000000	     -2.73289628	     -2.41864994	      0.67599404	      1.12033464	      0.90980671	      0.44019503	     27.65028616	     -3.07192116	    -14.33970677	     24.94032715	     24.94032715	      1.00057309	    -10.30630291	     -2.95939505	     -5.83935492	     -5.30444542	    -14.05682141	     20.36706940	     20.36706940	     21.82440351	     -3.98858743	     -5.20285126	     -7.63739389	      4.56017597	     -0.13416617	    -19.53724386	    -12.40324193	    -21.95760405	     18.45271377	     47.95693555	      0.00000000	      0.00000000	     21.48962460	    -16.56853481	     -9.95081601	     90.20487729	     48.12784447	      0.00000000	      0.00000000
     24.84150000	     -2.77275768	     -2.68684604	      0.69356141	      1.12126785	      0.91085738	      0.44326664	     27.17355574	     -2.67695787	    -14.43280270	     25.40992195	     25.40992195	      1.96698562	    -10.10328158	     -2.55813250	     -5.03075232	     -6.07220674	    -13.17574828	     22.87250036	     22.87250036	     19.73020393	     -6.65985312	     -7.88593374	     -7.54859914	      4.77413485	     -0.60402681	    -17.25763163	    -12.67185475	    -21.72072873	     17.20334032	     48.03234889	      0.00000000	      0.00000000	     19.51459090	    -16.31059634	    -11.35442570	     91.72595535	     48.26706156	      0.00000000	      0.00000000
     24.85300000	     -2.79334138	     -2.97247543	      0.69151492	      1.12205067	      0.91218418	      0.44646919	     26.53182228	     -2.21746620	    -14.58895882	     25.57056345	     25.57056345	      2.80940096	     -9.81824949	     -2.62747460	     -3.89035235	     -6.96918894	    -12.47738106	     26.06608895	     26.06608895	     18.03665570	     -8.89539740	     -9.08458355	     -7.45918612	      5.01988435	     -0.31906969	    -15.80924839	    -12.65903802	    -21.58595575	     17.24212391	     48.04060921	      0.00000000	      0.00000000	     18.38636739	    -15.82656810	    -11.46302136	     91.72428625	     48.28137623	      0.00000000	      0.00000000
     24.86450000	     -2.78436411	     -3.28620590	      0.68783692	      1.12265459	      0.91387462	      0.44972589	     25.68623427	     -1.70299845	    -14.93152296	     25.38505304	     25.38505304	      3.66780987	     -9.26375439	     -2.49041349	     -2.59770847	     -7.86938215	    -11.60510603	     29.43100453	     29.43100453	     15.51076146	    -11.71571976	    -11.11560643	     -7.50973629	      5.30466985	     -0.15821337	    -13.93539486	    -12.74347302	    -21.31338967	     17.15544242	     48.04912854	      0.00000000	      0.00000000	     16.92521576	    -15.33293558	    -11.99304385	     91.86981713	     48.33230234	      0.00000000	      0.00000000
